<svg width="390" height="446" viewBox="0 0 390 446" fill="none" xmlns="http://www.w3.org/2000/svg">
<rect x="-2" y="-70" width="392" height="495" rx="14" fill="url(#paint0_linear_85_463)"/>
<path d="M151.347 296.655C159.951 301.748 169.003 305.942 178.376 309.179C193.667 314.379 209.334 315.722 229.265 312.038C245.114 309.38 260.174 302.91 273.284 293.126C274.55 292.179 274.515 292.189 274.668 292.156C264.753 290.043 250.13 288.091 240.157 287.01C234.529 290.168 228.205 291.678 221.839 291.385C215.473 291.091 209.297 289.004 203.95 285.34C188.338 286.379 164.92 290.486 150.897 296.588C150.873 296.604 150.85 296.621 150.828 296.64C150.908 296.596 150.998 296.574 151.089 296.577C151.18 296.579 151.269 296.606 151.347 296.655ZM182.119 297.601C184.843 297.495 178.979 297.725 245.97 295.101C246.723 295.071 246.72 296.309 245.97 296.339L182.119 298.839C181.367 298.869 181.367 297.637 182.119 297.601Z" fill="#CCEAFF"/>
<path d="M295.786 375.596C295.304 365.485 294.771 355.196 292.572 345.318C289.988 333.721 284.667 322.793 275.242 316.349C275.242 308.499 275.424 300.649 275.324 292.799C275.321 292.697 275.296 292.597 275.25 292.506C275.205 292.416 275.14 292.339 275.062 292.279C275.135 292.345 275.193 292.427 275.232 292.519C275.271 292.612 275.29 292.712 275.287 292.813C275.284 292.914 275.26 293.014 275.216 293.104C275.172 293.194 275.11 293.272 275.033 293.333C267.442 299.189 259.128 303.918 250.323 307.39C234.288 313.489 217.252 316.092 200.24 315.043C183.127 313.643 166.705 306.909 151.646 298.224C151.353 298.058 151.061 297.892 150.765 297.726C150.662 297.67 150.579 297.581 150.529 297.471C150.478 297.362 150.464 297.237 150.487 297.118C150.448 297.284 150.487 296.733 150.468 321.198C135.969 332.695 130.248 352.974 129.43 371.763C128.645 389.706 129.361 410.913 129.833 429.843C129.937 428.236 133.521 427.353 135.03 426.993C134.365 420.728 135.272 414.388 137.658 408.611C140.044 402.833 143.826 397.821 148.624 394.078C153.423 390.336 159.068 387.994 164.993 387.288C170.918 386.582 176.914 387.538 182.38 390.058C180.636 395.429 180.043 401.143 180.643 406.787C181.243 412.43 183.021 417.862 185.848 422.69L187.635 422.642C171.525 397.729 190.432 362.977 220.032 366.796C227.72 367.785 234.843 371.57 240.183 377.502C232.795 381.673 226.998 388.416 223.775 396.588C220.551 404.761 220.098 413.86 222.493 422.345L223.952 422.358C221.549 414.436 221.817 405.878 224.71 398.141C227.603 390.404 232.942 383.966 239.818 379.922C245.449 376.842 251.756 375.405 258.087 375.761C264.418 376.117 270.545 378.253 275.836 381.947C282.312 386.732 287.007 393.754 289.113 401.804C291.22 409.855 290.605 418.43 287.375 426.053C290.359 426.449 293.291 427.198 296.115 428.288C296.424 428.426 296.695 428.643 296.904 428.92C297.114 429.196 297.255 429.523 297.315 429.871C296.982 411.44 295.797 375.792 295.786 375.596Z" fill="#CCEAFF"/>
<path d="M398.65 387.171C387.073 336.873 366.768 271.345 359.612 230.165C359.612 230.215 359.626 230.263 359.631 230.313C359.643 230.385 359.639 230.459 359.621 230.529C359.602 230.599 359.569 230.665 359.524 230.72C359.479 230.775 359.424 230.82 359.361 230.85C359.298 230.88 359.229 230.895 359.16 230.894C358.881 231.02 322.223 234.805 322.045 234.956C322.182 234.84 322.011 235.122 321.515 235.454C315.513 240.127 306.611 244.179 299.34 243.09C298.316 242.922 297.302 242.685 296.307 242.379C294.724 241.913 286.07 239.279 285.673 239.149C285.48 239.064 285.283 238.991 285.081 238.932C284.924 238.932 284.651 238.98 270.761 240.479C270.677 240.479 270.594 240.46 270.517 240.422C270.441 240.385 270.373 240.331 270.318 240.264C270.263 240.196 270.222 240.117 270.199 240.032C270.175 239.946 270.17 239.856 270.182 239.768C269.824 241.76 269.24 243.726 268.706 245.673C267.686 249.401 257.641 283.26 255.897 288.989C262.15 289.877 268.483 290.846 274.668 292.164C274.751 292.16 274.834 292.174 274.912 292.204C274.99 292.234 275.062 292.281 275.123 292.341C275.184 292.4 275.233 292.472 275.268 292.552C275.302 292.632 275.321 292.719 275.324 292.807C275.424 300.657 275.245 308.507 275.242 316.357C294.277 329.372 295.056 357.298 296.012 381.189C297.502 375.81 313.261 313.512 314.538 308.403C318.449 323.675 336.675 397.961 338.05 402.933C338.095 403.089 338.194 403.22 338.328 403.301C338.462 403.381 338.62 403.404 338.769 403.365C354.525 400.849 370.094 397.159 385.359 392.324C389.681 390.954 393.948 389.406 398.244 387.941C398.392 387.892 398.516 387.785 398.592 387.642C398.668 387.499 398.688 387.33 398.65 387.171ZM313.88 301.58C313.304 299.464 311.081 289.852 306.414 275.77C306.165 275.017 307.295 274.695 307.543 275.438C310.212 283.518 313.057 293.009 315.009 301.248C315.05 301.406 315.031 301.576 314.954 301.719C314.878 301.862 314.751 301.967 314.601 302.011C314.452 302.055 314.291 302.034 314.156 301.953C314.021 301.873 313.921 301.738 313.88 301.58ZM340.099 348.276L337.144 339.003C336.902 338.246 338.033 337.924 338.273 338.671C339.257 341.762 340.242 344.853 341.228 347.944C341.466 348.706 340.339 349.026 340.099 348.276ZM385.225 390.347C385.225 390.347 357.615 276.514 355.53 266.564C353.431 256.553 351.824 246.448 350.266 236.33C350.145 235.55 351.274 235.217 351.395 235.998C355.747 264.291 357.732 271.868 364.495 299.791C366.924 309.815 384.007 379.969 386.351 390.016C386.393 390.175 386.373 390.344 386.297 390.487C386.22 390.63 386.093 390.735 385.944 390.779C385.794 390.823 385.634 390.803 385.499 390.722C385.363 390.641 385.267 390.505 385.225 390.347Z" fill="#2755A0"/>
<path d="M359.612 230.165C356.049 196.617 342.167 168.478 326.787 152.441C323.151 148.773 318.784 146.012 314.007 144.361C302.618 140.211 290.272 141.244 281.935 150.304C277.72 154.884 275.508 161.244 274.055 167.328C271.92 176.844 270.718 186.567 270.469 196.344C270.853 196.437 271.713 196.635 271.757 196.645C271.905 196.691 272.03 196.797 272.106 196.939C272.182 197.081 272.204 197.249 272.165 197.407C270.923 204.024 267.538 224.375 265.938 231.372C265.922 231.45 265.891 231.524 265.847 231.59C265.802 231.655 265.746 231.709 265.681 231.75C265.615 231.791 265.543 231.818 265.467 231.828C265.392 231.838 265.316 231.831 265.243 231.809C266.94 232.465 268.639 233.112 270.341 233.749C270.341 235.751 270.355 237.766 270.184 239.76C270.171 239.848 270.177 239.938 270.2 240.023C270.224 240.109 270.264 240.188 270.319 240.256C270.374 240.323 270.442 240.377 270.519 240.414C270.596 240.451 270.679 240.47 270.763 240.47C285.012 238.932 284.926 238.92 285.083 238.923C285.94 239.174 283.736 238.673 296.309 242.371C297.304 242.677 298.317 242.915 299.342 243.082C305.958 244.078 313.969 240.758 319.555 236.893C319.986 236.594 321.611 235.427 321.969 235.095C321.969 235.095 322.181 234.843 322.047 234.956C322.204 234.821 358.851 231.033 359.162 230.894C359.224 230.894 359.285 230.881 359.342 230.856C359.399 230.831 359.451 230.794 359.495 230.748C359.539 230.702 359.573 230.647 359.597 230.587C359.621 230.526 359.633 230.461 359.633 230.396C359.63 230.319 359.623 230.242 359.612 230.165ZM284.937 238.9C280.077 237.715 275.333 236.047 270.769 233.92C270.075 233.63 270.38 232.426 271.083 232.727C273.397 233.698 275.696 234.738 278.056 235.582C281.254 236.726 285.023 237.597 285.287 237.74C285.426 237.795 285.54 237.905 285.605 238.046C285.67 238.187 285.681 238.35 285.637 238.5C285.593 238.65 285.496 238.776 285.366 238.853C285.237 238.93 285.081 238.938 284.937 238.9ZM305.394 230.847L299.541 233.942C298.869 234.297 298.277 233.23 298.951 232.873L304.802 229.778C305.482 229.423 306.068 230.491 305.394 230.847ZM312.417 163.8C305.144 175.476 299.323 188.094 295.098 201.343C294.726 201.656 294.312 201.91 293.87 202.096C287.242 200.598 280.56 199.408 273.826 198.527C273.087 198.431 273.08 197.199 273.826 197.289C280.602 198.174 287.333 199.367 294.018 200.868C298.267 187.568 304.111 174.898 311.407 163.169C311.819 162.507 312.833 163.126 312.417 163.8ZM340.149 206.296C336.059 214.791 331.454 222.997 326.363 230.864C325.941 231.52 324.926 230.899 325.354 230.24C330.445 222.372 335.052 214.166 339.146 205.672C339.48 204.958 340.493 205.586 340.149 206.296Z" fill="#76C063"/>
<path d="M286.827 128.825C286.851 128.93 286.848 129.04 286.82 129.143C286.792 129.246 286.739 129.341 286.667 129.416C286.595 129.492 286.505 129.547 286.407 129.575C286.309 129.604 286.205 129.605 286.107 129.579C285.612 129.504 275.076 128.029 273.308 127.725C273.222 127.699 273.144 127.652 273.077 127.589C273.011 127.526 272.959 127.448 272.925 127.361C272.892 127.274 272.877 127.18 272.883 127.086C272.888 126.992 272.914 126.901 272.958 126.818C271.074 130.572 271.262 135.764 274.978 138.153C276.664 139.223 278.661 139.606 280.594 139.229C282.527 138.852 284.264 137.742 285.477 136.106C286.174 135.061 286.654 133.873 286.887 132.618C287.12 131.364 287.099 130.071 286.827 128.825Z" fill="#FFDCD2"/>
<path d="M260.941 124.73C260.192 124.652 260.197 125.892 260.941 125.969L267.554 126.669C268.303 126.749 268.296 125.507 267.554 125.432L260.941 124.73Z" fill="black"/>
<path d="M245.979 295.106L182.122 297.596C181.372 297.626 181.367 298.864 182.122 298.834L245.979 296.339C246.723 296.309 246.728 295.071 245.979 295.106Z" fill="#2755A0"/>
<path d="M229.984 334.262C202.812 340.032 174.483 336.885 151.341 320.959C150.713 320.524 150.121 321.595 150.751 322.028C173.131 337.436 200.405 341.061 227.023 336.108C243.965 332.996 260.215 326.591 274.95 317.219C275.592 316.804 275.004 315.733 274.36 316.15C260.673 324.861 245.657 330.99 229.984 334.262Z" fill="white"/>
<path d="M154.23 339.229C149.964 345.547 147.391 352.967 146.785 360.704C146.72 361.498 147.884 361.493 147.956 360.704C148.577 353.19 151.092 345.989 155.241 339.853C155.679 339.204 154.663 338.585 154.23 339.229Z" fill="black"/>
<path d="M221.093 254.554C223.291 255.218 225.366 254.028 228.295 252.849C226.086 250.691 225.768 250.5 223.742 248.523C222.634 248.527 221.538 248.289 220.521 247.824C219.736 248.664 219.17 249.704 218.878 250.844C218.784 251.242 218.767 251.655 218.828 252.06C218.89 252.465 219.028 252.853 219.235 253.2C219.442 253.546 219.714 253.845 220.033 254.078C220.352 254.311 220.713 254.473 221.093 254.554Z" fill="#F7DA31"/>
<path d="M239.082 251.989C238.305 251.546 237.403 251.414 236.542 251.617C234.49 252.027 232.468 252.589 230.491 253.301C232.773 255.612 234.9 258.088 236.857 260.711C240.705 257.892 241.112 253.413 239.082 251.989Z" fill="#F7DA31"/>
<path d="M200.531 275.382C196.125 270.706 192.956 264.89 191.339 258.515C189.722 252.139 189.713 245.427 191.315 239.048C191.045 238.975 190.779 238.886 190.519 238.782C186.816 247.954 186.689 258.301 190.168 267.571C193.646 276.84 200.447 284.282 209.09 288.275C217.733 292.267 227.517 292.488 236.313 288.889C245.11 285.289 252.205 278.162 256.054 269.057C253.165 273.831 249.3 277.858 244.743 280.841C240.187 283.824 235.055 285.688 229.726 286.295C224.398 286.902 219.008 286.237 213.955 284.348C208.902 282.459 204.314 279.395 200.531 275.382Z" fill="#F7DA31"/>
<path d="M252.185 231.118C252.185 231.822 252.176 232.525 252.158 233.228C252.047 237.794 251.892 242.884 249.194 246.368C248.275 247.707 246.94 248.662 245.423 249.066C243.905 249.471 242.302 249.299 240.892 248.581C236.385 246.211 235.24 240.084 234.443 234.871C234.075 241.06 231.007 247.369 225.329 248.379C226.724 249.707 228.137 251.013 229.525 252.351C231.515 251.601 233.55 250.996 235.617 250.538C236.468 250.335 237.345 250.279 238.214 250.372C239.067 250.53 239.845 250.987 240.422 251.67C241 252.353 241.343 253.221 241.396 254.135C241.439 255.635 241.111 257.12 240.444 258.443C239.776 259.767 238.793 260.883 237.592 261.68C238.325 262.65 239.057 263.622 239.79 264.598C240.252 265.218 239.429 266.092 238.963 265.473C238.195 264.441 237.418 263.415 236.641 262.389C234.354 263.986 231.948 265.385 229.448 266.572C228.765 266.904 228.172 265.832 228.857 265.505C231.3 264.341 233.656 262.979 235.901 261.431C233.858 258.722 231.635 256.17 229.249 253.795C228.704 254.006 228.15 254.204 227.611 254.434C225.861 255.411 223.918 255.937 221.939 255.97C221.146 255.944 220.372 255.706 219.69 255.279C219.007 254.852 218.437 254.25 218.033 253.528C217.016 251.392 218.009 249.033 219.487 247.22C216.174 244.992 215.535 239.916 214.62 235.806C213.748 231.899 212.877 227.993 212.007 224.086C208.716 228.907 204.745 233.167 200.232 236.715C198.02 238.533 195.258 239.436 192.462 239.255C190.321 247.691 191.105 256.658 194.672 264.535C198.239 272.413 204.355 278.681 211.912 282.207C219.47 285.732 227.971 286.282 235.879 283.758C243.787 281.233 250.579 275.8 255.028 268.441C255.622 267.49 256.169 266.507 256.666 265.495C256.7 265.421 256.748 265.357 256.808 265.306C256.868 265.254 256.938 265.218 257.013 265.198C257.088 265.179 257.166 265.177 257.242 265.194C257.318 265.21 257.389 265.244 257.451 265.292C259.218 259.565 259.662 253.474 258.746 247.529C257.83 241.583 255.58 235.956 252.185 231.118Z" fill="#F7DA31"/>
<path d="M280.423 122.466C278.911 122.333 277.396 122.676 276.067 123.451C274.739 124.226 273.657 125.4 272.958 126.824C272.882 126.968 272.863 127.139 272.905 127.298C272.948 127.458 273.048 127.593 273.184 127.675C273.388 127.795 283.748 129.222 286.107 129.584C286.205 129.61 286.309 129.608 286.407 129.579C286.504 129.55 286.594 129.496 286.666 129.42C286.738 129.345 286.791 129.251 286.819 129.148C286.847 129.044 286.85 128.935 286.827 128.83C286.486 127.213 285.693 125.742 284.551 124.607C283.409 123.472 281.971 122.726 280.423 122.466Z" fill="black"/>
<path d="M237.597 261.679C238.796 260.879 239.777 259.762 240.444 258.439C241.111 257.116 241.441 255.632 241.401 254.134C241.348 253.22 241.004 252.351 240.427 251.669C239.85 250.986 239.072 250.529 238.218 250.371C237.35 250.276 236.473 250.332 235.622 250.537C233.553 250.995 231.517 251.601 229.525 252.349C228.373 251.239 227.054 250.025 225.329 248.377C224.805 248.475 224.274 248.523 223.742 248.521C225.602 250.337 227.007 251.617 228.295 252.847C227.737 253.071 227.109 253.315 226.568 253.553C224.901 254.524 222.975 254.874 221.098 254.549C220.719 254.465 220.359 254.302 220.041 254.069C219.723 253.835 219.452 253.537 219.246 253.191C219.039 252.844 218.9 252.458 218.838 252.054C218.775 251.65 218.791 251.236 218.882 250.839C219.175 249.699 219.741 248.659 220.526 247.819C220.167 247.652 219.821 247.452 219.493 247.223C218.017 249.026 217.022 251.385 218.039 253.531C218.443 254.252 219.013 254.853 219.696 255.279C220.378 255.704 221.152 255.94 221.944 255.965C224.132 256.164 225.899 255.093 229.254 253.79C231.64 256.165 233.863 258.717 235.906 261.426C233.66 262.973 231.305 264.334 228.861 265.5C228.177 265.832 228.772 266.894 229.453 266.567C231.953 265.38 234.358 263.981 236.645 262.384C237.355 263.307 238.123 264.331 238.967 265.468C239.438 266.094 240.256 265.213 239.795 264.594C238.986 263.518 238.261 262.55 237.597 261.679ZM230.491 253.301C232.468 252.591 234.49 252.027 236.542 251.614C237.403 251.41 238.305 251.542 239.082 251.986C241.109 253.405 240.687 257.887 236.857 260.707C234.907 258.079 232.78 255.604 230.491 253.301Z" fill="black"/>
<path d="M257.677 266.119C258.007 265.455 257.118 264.838 256.718 265.405C256.203 266.447 255.639 267.46 255.028 268.441C250.579 275.798 243.787 281.229 235.88 283.753C227.974 286.277 219.474 285.727 211.918 282.203C204.361 278.679 198.246 272.414 194.677 264.539C191.109 256.664 190.322 247.699 192.459 239.264C192.073 239.22 191.691 239.148 191.315 239.048C189.062 248.054 190.033 257.623 194.039 265.92C198.045 274.218 204.807 280.66 213.027 284.014C221.248 287.367 230.349 287.395 238.588 284.093C246.827 280.791 253.624 274.391 257.677 266.119Z" fill="#FC9070"/>
<path d="M410.593 413.574C407.747 411.697 404.668 410.249 401.444 409.271C384.26 404.009 360.642 405.347 338.841 415.2C338.273 415.458 338.609 416.336 339.137 416.354C359.669 417.055 389.587 416.005 410.295 414.782C410.434 414.79 410.571 414.747 410.683 414.66C410.795 414.574 410.876 414.449 410.911 414.306C410.946 414.164 410.933 414.014 410.876 413.88C410.818 413.747 410.718 413.638 410.593 413.574Z" fill="black"/>
<path d="M271.757 196.645C256.525 192.801 241.009 190.341 225.381 189.293C220.666 188.995 216.008 190.498 212.254 193.527C208.85 196.396 205.855 199.769 203.361 203.542C196.587 213.484 196.257 214.984 190.545 224.624C189.02 226.714 187.889 229.094 187.214 231.636C187.039 232.6 187.05 233.592 187.247 234.552C187.444 235.512 187.822 236.419 188.36 237.22C189.426 238.433 190.892 239.164 192.455 239.264C195.25 239.444 198.012 238.541 200.224 236.724C204.737 233.175 208.708 228.916 211.999 224.095C212.87 228.002 213.741 231.909 214.612 235.814C215.727 240.816 216.366 245.91 220.512 247.824C222.491 248.69 224.702 248.754 226.723 248.004C231.59 246.229 234.102 240.432 234.433 234.871C235.239 240.14 236.389 246.217 240.883 248.581C242.293 249.299 243.896 249.471 245.413 249.066C246.931 248.662 248.265 247.707 249.185 246.368C251.882 242.882 252.041 237.811 252.149 233.228C252.202 230.952 252.179 228.912 252.041 226.505C253.275 227.016 265.072 231.784 265.229 231.809C265.302 231.831 265.378 231.837 265.453 231.827C265.528 231.817 265.601 231.791 265.666 231.75C265.731 231.709 265.788 231.654 265.832 231.589C265.877 231.524 265.908 231.45 265.924 231.372C267.549 224.266 270.906 204.04 272.151 197.407C272.19 197.25 272.171 197.084 272.098 196.943C272.024 196.801 271.902 196.694 271.757 196.645ZM231.918 213.102C231.525 215.055 230.891 216.944 230.034 218.723C229.692 219.433 228.684 218.806 229.025 218.097C229.83 216.411 230.425 214.622 230.792 212.773C230.945 212 232.073 212.332 231.918 213.102ZM211.389 214.447C212.045 212.929 212.527 211.334 212.827 209.696C212.971 208.914 214.1 209.247 213.956 210.028C213.628 211.769 213.106 213.462 212.4 215.072C212.084 215.801 211.076 215.165 211.389 214.447Z" fill="#FFDCD2"/>
<path d="M150.757 297.724C151.054 297.89 151.346 298.056 151.638 298.222C180.306 314.76 201.586 317.732 226.34 313.776C243.924 310.966 260.399 304.787 275.033 293.333C275.14 293.253 275.219 293.138 275.26 293.007C275.3 292.876 275.3 292.734 275.259 292.603C275.219 292.471 275.139 292.357 275.033 292.277C274.926 292.196 274.798 292.154 274.668 292.156C274.518 292.186 274.542 292.184 273.284 293.126C260.174 302.91 245.114 309.38 229.265 312.038C199.879 317.47 178.711 312.279 151.347 296.655C150.666 296.268 150.104 297.367 150.757 297.724Z" fill="white"/>
<path d="M338.27 338.676C338.03 337.926 336.899 338.248 337.141 339.008L340.096 348.281C340.334 349.031 341.466 348.709 341.225 347.949C340.239 344.858 339.254 341.767 338.27 338.676Z" fill="#2755A0"/>
<path d="M299.541 233.942L305.394 230.847C306.068 230.491 305.476 229.423 304.802 229.778L298.951 232.873C298.277 233.23 298.869 234.297 299.541 233.942Z" fill="#0B8767"/>
<path d="M147.32 226.598C147.186 226.515 147.026 226.492 146.876 226.533C146.726 226.575 146.597 226.678 146.519 226.819C146.44 226.961 146.418 227.13 146.458 227.289C146.497 227.448 146.594 227.584 146.728 227.667C149.066 229.199 166.667 240.529 167.539 241.058C167.606 241.097 167.68 241.122 167.757 241.131C167.834 241.14 167.911 241.132 167.985 241.109C168.059 241.085 168.127 241.047 168.187 240.995C168.246 240.943 168.296 240.879 168.332 240.807C168.402 240.669 168.421 240.508 168.383 240.356C168.345 240.204 168.255 240.073 168.129 239.989C166.743 239.081 148.097 227.097 147.32 226.598Z" fill="black"/>
<path d="M132.451 247.949H167.834C167.989 247.949 168.138 247.883 168.248 247.767C168.358 247.651 168.419 247.494 168.419 247.33C168.419 247.165 168.358 247.008 168.248 246.892C168.138 246.776 167.989 246.71 167.834 246.71H132.451C132.295 246.71 132.146 246.776 132.037 246.892C131.927 247.008 131.865 247.165 131.865 247.33C131.865 247.494 131.927 247.651 132.037 247.767C132.146 247.883 132.295 247.949 132.451 247.949Z" fill="black"/>
<path d="M167.539 253.022L146.658 265.04C145.995 265.42 146.585 266.489 147.248 266.109L168.129 254.089C168.79 253.709 168.2 252.64 167.539 253.022Z" fill="black"/>
<path d="M212.4 215.077C213.106 213.467 213.628 211.773 213.956 210.033C214.1 209.254 212.971 208.92 212.827 209.701C212.527 211.339 212.045 212.934 211.389 214.452C211.076 215.172 212.084 215.801 212.4 215.077Z" fill="#FC9070"/>
<path d="M229.023 218.104C228.682 218.812 229.69 219.432 230.032 218.729C230.89 216.951 231.523 215.061 231.916 213.109C232.073 212.332 230.943 212 230.788 212.777C230.421 214.626 229.828 216.417 229.023 218.104Z" fill="#FC9070"/>
<path d="M240.253 337.341C234.365 339.232 229.09 342.816 225.018 347.695C220.946 352.573 218.238 358.553 217.196 364.965C218.314 365.041 219.428 365.162 220.539 365.331C220.49 365.259 220.46 365.176 220.45 365.089C220.441 365.002 220.452 364.914 220.484 364.833C220.774 364.067 221.046 363.294 221.368 362.54C231.309 339.184 260.516 332.647 276.814 349.881C279.389 352.612 281.47 355.819 282.951 359.343C276.892 341.088 257.801 331.54 240.253 337.341Z" fill="#F7DA31"/>
<path d="M284.029 367.205C283.923 366.453 283.758 365.711 283.584 364.974C282.14 358.843 278.937 353.334 274.415 349.204C257.573 333.84 229.803 342.092 221.613 365.156C221.397 365.764 220.644 365.185 223.636 365.953C230.698 367.774 237.091 371.769 242.005 377.432C242.06 377.409 242.117 377.391 242.172 377.366C248.718 374.351 255.97 373.481 262.988 374.87C270.007 376.259 276.47 379.842 281.543 385.156C284.008 379.702 285.07 373.658 284.623 367.631C284.557 367.649 284.489 367.652 284.422 367.64C284.355 367.627 284.291 367.6 284.235 367.56C284.179 367.519 284.132 367.467 284.096 367.406C284.061 367.344 284.038 367.276 284.029 367.205Z" fill="#F7DA31"/>
<path d="M181.209 394.706C181.088 394.763 180.952 394.767 180.829 394.718C161.57 387.183 139.643 403.154 136.975 425.464C136.881 426.246 135.719 426.254 135.804 425.464C138.434 402.467 160.744 385.813 181.138 393.526C181.245 393.568 181.337 393.641 181.405 393.738C181.678 392.498 181.998 391.27 182.378 390.056C176.913 387.534 170.915 386.577 164.989 387.282C159.063 387.987 153.416 390.328 148.617 394.071C143.818 397.814 140.035 402.827 137.648 408.606C135.261 414.384 134.355 420.725 135.021 426.991C146.917 424.203 173.677 423.036 185.843 422.69C180.923 414.351 179.261 404.317 181.209 394.706Z" fill="#F7DA31"/>
<path d="M210.988 399.201C209.261 402.472 211.745 405.453 216.297 403.936C217.543 403.521 218.75 402.976 219.967 402.462C217.769 400.368 215.501 398.363 213.438 396.14C212.451 396.993 211.62 398.031 210.988 399.201Z" fill="#F7DA31"/>
<path d="M221.644 404.083C221.589 404.052 220.959 403.428 220.914 403.383C219.034 404.283 217.08 404.995 215.075 405.511C214.206 405.691 213.308 405.645 212.46 405.375C211.612 405.105 210.839 404.621 210.208 403.964C207.99 401.283 210.01 397.546 212.627 395.241C211.842 394.355 211.108 393.42 210.429 392.44C209.985 391.794 211.001 391.179 211.44 391.814C212.08 392.736 212.772 393.616 213.511 394.45C215.378 392.827 217.401 391.414 219.545 390.234C220.212 389.867 220.801 390.938 220.135 391.303C218.067 392.428 216.119 393.785 214.326 395.352C216.493 397.684 218.911 399.766 221.198 401.969C221.791 401.739 221.936 401.637 222.164 401.71C223.334 396.841 225.409 392.267 228.269 388.255C231.129 384.244 234.716 380.875 238.821 378.345C234.202 374.57 228.644 372.295 222.825 371.798C198.601 369.706 179.7 395.521 187.481 419.387C187.727 420.144 186.597 420.464 186.352 419.719C184.186 413.018 183.956 405.787 185.689 398.947C192.25 372.885 221.394 362.177 239.721 377.533C239.969 377.741 239.689 377.777 240.179 377.502C234.309 370.978 226.303 367.074 217.799 366.589C189.539 364.871 171.864 398.248 187.631 422.642C198.862 422.34 209.98 422.212 222.493 422.345C220.773 416.428 220.481 410.15 221.644 404.083Z" fill="#F7DA31"/>
<path d="M220.132 391.303C220.802 390.938 220.209 389.867 219.542 390.234C217.397 391.413 215.375 392.827 213.508 394.45C213.774 394.754 214.042 395.056 214.317 395.352C216.112 393.785 218.061 392.428 220.132 391.303Z" fill="#FC9070"/>
<path d="M216.297 403.936C210.758 405.783 207.903 400.994 213.438 396.134C213.164 395.838 212.894 395.539 212.627 395.234C210.007 397.543 207.991 401.278 210.208 403.957C210.839 404.614 211.612 405.099 212.46 405.368C213.308 405.638 214.206 405.685 215.075 405.504C217.08 404.989 219.035 404.276 220.914 403.376C220.6 403.067 220.286 402.759 219.972 402.455C218.75 402.976 217.543 403.521 216.297 403.936Z" fill="#FC9070"/>
<path d="M221.189 401.968C221.437 402.208 221.68 402.45 221.923 402.692C221.997 402.36 222.074 402.033 222.154 401.71C221.928 401.638 221.801 401.734 221.189 401.968Z" fill="#FC9070"/>
<path d="M211.439 391.814C210.999 391.178 209.984 391.794 210.428 392.44C213.279 396.114 216.476 399.471 219.969 402.462C220.024 402.515 221.598 404.06 221.641 404.083C221.727 403.619 221.821 403.154 221.925 402.692C218.347 399.15 214.32 395.984 211.439 391.814Z" fill="#FC9070"/>
<path d="M267.365 414.998C266.925 414.217 266.319 413.556 265.595 413.066C264.091 411.918 262.518 410.877 260.885 409.95C260.808 413.282 260.516 416.605 260.012 419.895C264.905 421.14 268.665 417.689 267.365 414.998Z" fill="#F7DA31"/>
<path d="M255.11 399.022C254.404 399.307 253.832 399.875 253.519 400.603C253.206 401.331 253.178 402.16 253.44 402.91C254.313 405.513 257.146 406.55 259.72 407.906C259.729 404.432 259.563 401.822 259.731 398.569C258.179 398.291 256.587 398.447 255.11 399.022Z" fill="#F7DA31"/>
<path d="M290.096 407.036C289.958 406.794 290.019 406.417 289.451 404.256C287.773 397.803 284.202 392.079 279.252 387.907C274.303 383.736 268.229 381.333 261.905 381.043C257.074 380.875 252.263 381.77 247.776 383.673C243.29 385.576 239.227 388.444 235.845 392.096C232.463 395.747 229.836 400.102 228.131 404.885C226.426 409.667 225.679 414.772 225.94 419.875C225.985 420.672 224.815 420.667 224.768 419.875C224.294 411.293 226.628 402.8 231.378 395.823C245.213 375.367 272.826 374.388 285.709 393.31C272.898 370.163 240.635 369.584 227.34 392.571C224.774 396.983 223.143 401.93 222.559 407.072C221.974 412.214 222.45 417.429 223.953 422.358C237.824 422.511 249.207 422.889 258.324 423.354C258.452 422.522 258.577 421.689 258.699 420.854C255.998 420.128 253.356 419.177 250.797 418.009C250.107 417.695 250.703 416.63 251.388 416.94C253.811 418.041 256.312 418.937 258.869 419.621C259.376 416.196 259.654 412.738 259.701 409.272C256.952 407.769 254.438 406.875 252.939 404.591C252.446 403.864 252.16 403.002 252.116 402.108C252.071 401.215 252.27 400.326 252.689 399.548C253.129 398.943 253.68 398.438 254.309 398.063C254.937 397.688 255.631 397.451 256.349 397.367C257.495 397.209 258.654 397.197 259.803 397.334C259.891 396.123 260.049 394.919 260.274 393.728C260.421 392.946 261.55 393.28 261.403 394.06C261.187 395.191 261.037 396.334 260.952 397.483C263.343 397.826 265.691 398.443 267.954 399.324C268.658 399.596 268.351 400.793 267.64 400.518C265.451 399.668 263.183 399.064 260.874 398.717C260.717 401.852 260.874 405.124 260.874 408.534C262.545 409.457 264.158 410.494 265.703 411.638C266.47 412.16 267.172 412.782 267.791 413.491C270.608 416.811 266.976 422.637 259.826 421.113C259.713 421.888 259.599 422.658 259.483 423.422C267.733 423.871 279.195 424.75 287.366 426.048C289.905 420.095 290.849 413.519 290.096 407.036Z" fill="#F7DA31"/>
<path d="M246.513 382.815C239.75 385.917 234.044 391.127 230.158 397.749C226.271 404.372 224.389 412.091 224.764 419.875C224.811 420.667 225.98 420.672 225.935 419.875C225.575 412.734 227.18 405.635 230.556 399.438C233.932 393.241 238.934 388.211 244.957 384.957C250.113 382.043 255.929 380.688 261.765 381.039C267.602 381.391 273.235 383.435 278.045 386.949C284.33 391.781 288.638 398.963 290.091 407.035C289.564 402.183 288.07 397.505 285.708 393.308C276.927 380.415 260.614 376.288 246.513 382.815Z" fill="#FC9070"/>
<path d="M263.214 341.478C255.01 339.181 246.301 340.038 238.638 343.894C230.975 347.751 224.855 354.358 221.368 362.539C221.054 363.292 220.774 364.066 220.484 364.831C220.452 364.912 220.441 365 220.45 365.087C220.46 365.175 220.49 365.258 220.539 365.329C220.813 365.372 221.087 365.425 221.361 365.473C221.477 365.402 221.565 365.29 221.613 365.158C223.641 359.529 226.941 354.509 231.224 350.538C235.507 346.566 240.645 343.761 246.188 342.369C263.1 338.082 279.577 348.013 283.584 364.972C283.758 365.709 283.923 366.451 284.029 367.203C284.038 367.274 284.061 367.343 284.096 367.404C284.132 367.465 284.179 367.518 284.235 367.559C284.291 367.599 284.355 367.627 284.422 367.64C284.488 367.652 284.557 367.65 284.623 367.633C284.426 364.802 283.864 362.013 282.951 359.343C281.106 355.014 278.381 351.168 274.97 348.08C271.558 344.992 267.544 342.738 263.214 341.478Z" fill="#FC9070"/>
<path d="M225.007 370.829C199.24 366.795 178.043 394.334 186.352 419.712C186.597 420.461 187.727 420.14 187.481 419.38C185.612 413.654 185.212 407.507 186.322 401.565C191.31 374.897 220.548 363.289 238.812 378.342C239.159 378.124 239.503 377.902 239.856 377.698C239.821 377.634 239.775 377.577 239.721 377.532C235.457 373.972 230.383 371.66 225.007 370.829Z" fill="#FC9070"/>
<path d="M181.138 393.526C160.56 385.747 138.404 402.706 135.803 425.466C135.713 426.256 136.88 426.248 136.974 425.466C139.643 403.102 161.61 387.201 180.827 394.719C180.95 394.769 181.087 394.764 181.207 394.708C181.27 394.384 181.333 394.06 181.405 393.738C181.337 393.641 181.245 393.568 181.138 393.526Z" fill="#FC9070"/>
<path d="M267.645 400.516C268.355 400.792 268.659 399.595 267.959 399.323C265.695 398.441 263.347 397.824 260.957 397.482C260.924 397.892 260.902 398.303 260.881 398.715C263.189 399.063 265.456 399.667 267.645 400.516Z" fill="#FC9070"/>
<path d="M260.881 409.95C262.515 410.876 264.089 411.917 265.591 413.066C266.316 413.556 266.922 414.217 267.362 414.998C268.659 417.682 264.91 421.14 260.005 419.895C259.949 420.303 259.892 420.71 259.833 421.118C267.015 422.649 270.598 416.802 267.797 413.496C267.178 412.787 266.476 412.165 265.709 411.643C264.164 410.499 262.551 409.462 260.88 408.539C260.885 409.009 260.894 409.48 260.881 409.95Z" fill="#FC9070"/>
<path d="M251.386 416.95C250.702 416.64 250.105 417.705 250.796 418.019C253.354 419.187 255.997 420.138 258.698 420.864C258.759 420.454 258.811 420.034 258.867 419.631C256.31 418.948 253.809 418.051 251.386 416.95Z" fill="#FC9070"/>
<path d="M259.713 407.901C257.164 406.55 254.316 405.519 253.433 402.905C253.172 402.155 253.2 401.326 253.513 400.598C253.826 399.87 254.397 399.302 255.104 399.017C256.578 398.443 258.169 398.287 259.718 398.564C259.738 398.155 259.767 397.749 259.8 397.342C258.651 397.206 257.492 397.217 256.346 397.375C255.628 397.46 254.934 397.696 254.305 398.071C253.677 398.446 253.126 398.951 252.686 399.557C252.267 400.334 252.068 401.223 252.112 402.117C252.157 403.011 252.442 403.872 252.936 404.6C254.443 406.895 256.949 407.777 259.698 409.281C259.707 408.822 259.712 408.362 259.713 407.901Z" fill="#FC9070"/>
<path d="M260.817 400.762C260.809 398.515 261.006 396.272 261.406 394.065C261.553 393.288 260.424 392.955 260.277 393.733C259.984 395.326 259.799 396.94 259.724 398.561C259.316 406.529 260.594 408.715 258.322 423.359L259.492 423.424C261.5 410.347 260.723 409.608 260.817 400.762Z" fill="#FC9070"/>
<path d="M307.543 275.443C307.295 274.696 306.165 275.018 306.415 275.775C311.062 289.804 313.312 299.497 313.88 301.585C313.922 301.743 314.021 301.878 314.156 301.958C314.292 302.039 314.452 302.06 314.601 302.016C314.751 301.972 314.878 301.867 314.954 301.724C315.031 301.581 315.05 301.411 315.009 301.253C313.038 292.948 310.161 283.343 307.543 275.443Z" fill="#2755A0"/>
<path d="M278.052 235.573C275.697 234.73 273.394 233.689 271.08 232.718C270.38 232.426 270.075 233.621 270.766 233.912C275.329 236.042 280.073 237.709 284.934 238.892C285.078 238.93 285.23 238.908 285.36 238.831C285.49 238.754 285.586 238.628 285.631 238.478C285.675 238.328 285.664 238.166 285.598 238.025C285.533 237.883 285.42 237.774 285.281 237.718C284.929 237.542 281.408 236.774 278.052 235.573Z" fill="#0B8767"/>
<path d="M311.407 163.169C304.116 174.899 298.273 187.566 294.021 200.863C287.355 199.369 280.601 198.165 273.829 197.284C273.082 197.188 273.09 198.426 273.829 198.522C280.557 199.397 287.251 200.514 293.873 202.091C294.049 202.133 294.999 201.671 295.101 201.338C299.295 188.078 305.117 175.458 312.417 163.8C312.833 163.136 311.818 162.505 311.407 163.169Z" fill="#0B8767"/>
<path d="M326.363 230.864C331.455 222.996 336.062 214.79 340.157 206.296C340.498 205.589 339.488 204.968 339.146 205.672C335.052 214.165 330.445 222.372 325.353 230.24C324.919 230.897 325.933 231.518 326.363 230.864Z" fill="#0B8767"/>
<path d="M385.222 390.349C385.264 390.507 385.363 390.641 385.499 390.722C385.634 390.803 385.794 390.823 385.944 390.779C386.093 390.735 386.22 390.63 386.297 390.487C386.373 390.344 386.393 390.175 386.351 390.017C383.996 379.97 359.627 279.917 357.446 269.916C354.909 258.271 353.157 247.467 351.395 235.998C351.274 235.213 350.139 235.547 350.266 236.33C355.209 268.445 354.193 262.246 385.222 390.349Z" fill="#2755A0"/>
<path d="M353.025 170.286C352.944 170.149 352.816 170.05 352.668 170.011C352.52 169.972 352.364 169.996 352.232 170.077C352.1 170.159 352.004 170.291 351.963 170.447C351.922 170.602 351.94 170.768 352.014 170.91C358.954 183.549 363.698 197.4 366.021 211.807C366.145 212.592 367.277 212.259 367.15 211.475C365.355 200.151 362.048 189.155 357.328 178.815C356.003 175.918 354.612 173.043 353.025 170.286Z" fill="black"/>
<path d="M357.783 164.464C366.181 178.674 370.998 194.922 371.774 211.658C371.81 212.45 372.981 212.455 372.943 211.658C372.164 194.703 367.292 178.241 358.793 163.84C358.391 163.169 357.381 163.788 357.783 164.464Z" fill="black"/>
<path d="M297.318 429.871C297.258 429.523 297.117 429.196 296.908 428.919C296.698 428.643 296.427 428.426 296.118 428.288C277.288 419.53 121.156 420.458 130.13 430.751C138.286 440.11 297.2 439.858 297.32 429.979V429.94C297.318 429.916 297.318 429.898 297.318 429.871Z" fill="#FFC431"/>
<path d="M272.875 126.764C270.942 130.553 271.187 135.789 274.93 138.241C275.958 138.897 277.111 139.304 278.306 139.434C279.501 139.563 280.708 139.412 281.842 138.99C282.975 138.569 284.006 137.888 284.86 136.996C285.715 136.103 286.373 135.022 286.786 133.83C287.2 132.638 287.359 131.363 287.252 130.098C287.145 128.833 286.775 127.609 286.168 126.513C285.561 125.417 284.732 124.476 283.741 123.759C282.751 123.041 281.622 122.564 280.436 122.361C278.905 122.223 277.37 122.568 276.025 123.351C274.679 124.135 273.583 125.322 272.875 126.764ZM280.882 137.793C280.101 138.043 279.281 138.126 278.47 138.038C277.658 137.95 276.872 137.692 276.156 137.279C275.44 136.866 274.809 136.306 274.299 135.633C273.79 134.959 273.412 134.185 273.189 133.356C272.831 131.52 273.063 129.61 273.85 127.931C276.362 128.349 280.244 128.799 285.675 129.627C286.014 131.379 285.705 133.201 284.813 134.72C283.92 136.239 282.517 137.338 280.882 137.793ZM285.29 128.12C283.073 127.788 275.96 126.792 274.625 126.583C275.252 125.636 276.101 124.88 277.09 124.388C278.078 123.897 279.171 123.687 280.26 123.781C281.385 123.972 282.442 124.474 283.324 125.236C284.206 125.998 284.889 126.993 285.29 128.12Z" fill="black"/>
<path d="M260.941 124.624C260.068 124.533 260.073 125.977 260.941 126.068L267.554 126.769C268.427 126.862 268.421 125.417 267.554 125.326L260.941 124.624Z" fill="black"/>
<path d="M245.979 294.998L182.129 297.498C181.253 297.533 181.248 298.977 182.129 298.944C184.247 298.859 245.943 296.444 245.979 296.442C246.849 296.407 246.853 294.963 245.979 294.998Z" fill="black"/>
<path d="M148.053 360.704C148.676 353.208 151.187 346.026 155.326 339.904C155.836 339.147 154.652 338.425 154.145 339.176C149.875 345.513 147.298 352.95 146.688 360.704C146.612 361.629 147.978 361.624 148.053 360.704Z" fill="black"/>
<path d="M410.628 413.476C407.783 411.592 404.699 410.142 401.47 409.171C385.208 404.107 361.435 404.865 338.793 415.112C338.129 415.413 338.521 416.44 339.137 416.459C359.661 417.154 389.499 416.115 410.281 414.887C410.443 414.896 410.603 414.846 410.735 414.745C410.866 414.643 410.96 414.497 411.001 414.331C411.041 414.165 411.027 413.989 410.959 413.833C410.891 413.677 410.774 413.551 410.628 413.476ZM342.457 415.091C359.642 407.989 381.897 404.965 399.754 410.151C402.641 410.948 405.433 412.091 408.075 413.557C388.378 414.689 362.092 415.585 342.457 415.091Z" fill="black"/>
<path d="M340.002 348.304C340.281 349.18 341.6 348.802 341.317 347.921C340.334 344.83 339.35 341.739 338.364 338.649C338.085 337.773 336.766 338.151 337.047 339.033L340.002 348.304Z" fill="black"/>
<path d="M304.754 229.69L298.901 232.785C298.116 233.2 298.806 234.445 299.59 234.031L305.443 230.937C306.229 230.52 305.539 229.275 304.754 229.69Z" fill="black"/>
<path d="M146.441 226.802C146.359 226.963 146.338 227.151 146.382 227.329C146.426 227.506 146.532 227.659 146.678 227.756C149.033 229.267 166.617 240.618 167.487 241.148C167.643 241.241 167.828 241.265 168.001 241.216C168.174 241.166 168.322 241.047 168.412 240.883C168.503 240.719 168.529 240.525 168.484 240.341C168.44 240.157 168.329 239.999 168.176 239.901L147.369 226.508C147.29 226.463 147.203 226.434 147.113 226.424C147.024 226.415 146.933 226.424 146.847 226.451C146.761 226.478 146.681 226.523 146.611 226.584C146.541 226.644 146.483 226.718 146.441 226.802Z" fill="black"/>
<path d="M131.791 247.354C131.797 247.537 131.869 247.711 131.991 247.841C132.113 247.97 132.278 248.045 132.451 248.052H167.832C168.013 248.052 168.187 247.976 168.315 247.84C168.443 247.705 168.515 247.521 168.515 247.33C168.515 247.138 168.443 246.954 168.315 246.819C168.187 246.684 168.013 246.607 167.832 246.607H132.451C132.27 246.614 132.099 246.697 131.975 246.837C131.852 246.977 131.785 247.163 131.791 247.354Z" fill="black"/>
<path d="M147.298 266.197L168.179 254.179C168.952 253.734 168.263 252.487 167.49 252.932L146.609 264.95C145.838 265.392 146.526 266.642 147.298 266.197Z" fill="black"/>
<path d="M212.483 215.131C213.196 213.512 213.723 211.81 214.053 210.059C214.223 209.151 212.907 208.763 212.737 209.676C212.44 211.305 211.961 212.892 211.309 214.402C210.94 215.24 212.117 215.974 212.483 215.131Z" fill="black"/>
<path d="M230.122 218.781C230.984 216.995 231.621 215.098 232.017 213.137C232.201 212.231 230.883 211.842 230.701 212.753C230.337 214.593 229.745 216.375 228.943 218.052C228.539 218.879 229.717 219.611 230.122 218.781Z" fill="black"/>
<path d="M337.953 402.951C338.007 403.132 338.123 403.283 338.28 403.376C338.436 403.469 338.619 403.495 338.793 403.449C354.549 400.931 370.117 397.242 385.383 392.409C389.705 391.039 393.97 389.489 398.267 388.024C398.438 387.967 398.581 387.843 398.668 387.678C398.756 387.514 398.781 387.32 398.738 387.136C393.22 362.459 372.086 285.732 366.575 262.56C364.063 252.004 361.584 240.947 359.702 230.135C356.141 196.882 342.726 169.185 327.046 152.573C323.357 148.724 318.855 145.859 313.911 144.214C308.403 142.121 302.499 141.459 296.698 142.285C290.702 143.161 285.194 146.258 281.155 151.025C276.985 156.079 274.906 162.849 273.484 169.27C271.672 178.131 270.625 187.148 270.358 196.21C258.077 193.207 245.624 191.053 233.078 189.762C224.99 188.949 218.784 188.195 212.197 193.438C208.8 196.339 205.798 199.722 203.275 203.491C196.474 213.469 196.094 215.061 190.458 224.573C188.929 226.671 187.795 229.06 187.117 231.609C186.939 232.591 186.952 233.6 187.154 234.576C187.356 235.552 187.743 236.475 188.293 237.288C188.852 237.987 189.574 238.52 190.387 238.835C187.107 246.991 186.639 256.106 189.065 264.589C191.492 273.073 196.658 280.386 203.663 285.254C188.095 286.32 164.948 290.363 150.868 296.489C150.773 296.525 150.684 296.581 150.609 296.654C150.534 296.727 150.473 296.814 150.43 296.912C150.335 297.111 150.374 297.357 150.36 321.148C136.021 332.554 130.017 353.072 129.322 371.763C128.942 379.381 128.943 387.022 128.989 394.648C129.017 399.49 129.452 424.508 129.738 430.315C129.758 431.012 131.641 431.975 132.297 432.199C135.399 433.178 138.581 433.853 141.8 434.216C194.117 440.633 297.448 437.481 297.419 430.315C297.419 428.128 296.283 385.993 296.103 381.205C297.583 375.852 313.291 313.781 314.533 308.798C318.413 323.944 336.636 397.961 337.953 402.951ZM274.2 172.678C275.434 166.129 277.191 159.281 280.875 153.754C291.165 138.888 312.662 141.332 324.914 152.411C330.286 158.03 335.041 164.273 339.089 171.019C349.56 188.805 356.122 208.848 358.294 229.672C330.288 232.707 323.694 233.334 321.997 233.644C321.339 233.764 321.414 233.837 321.267 233.976C319.464 235.399 317.554 236.664 315.555 237.756C309.476 241.251 302.702 242.255 299.292 241.72C296.439 241.274 285.116 237.517 285.273 237.6C275.081 234.763 279.959 236.048 266.176 230.736C267.689 223.97 271.226 202.921 272.261 197.428C272.285 197.331 272.289 197.23 272.275 197.131C272.26 197.032 272.226 196.938 272.175 196.853C272.124 196.769 272.058 196.696 271.979 196.64C271.901 196.584 271.812 196.545 271.719 196.527C271.983 188.523 272.812 180.551 274.2 172.678ZM271.611 234.38C274.747 235.83 277.979 237.037 281.281 237.994L271.498 239.051C271.601 237.504 271.616 235.937 271.611 234.38ZM217.95 253.581C218.363 254.318 218.945 254.932 219.642 255.367C220.34 255.803 221.13 256.045 221.939 256.071C224.15 256.274 225.864 255.218 229.218 253.913C231.56 256.248 233.746 258.753 235.76 261.408C233.542 262.928 231.218 264.268 228.808 265.417C228.009 265.8 228.701 267.044 229.497 266.664C231.973 265.485 234.357 264.102 236.627 262.527C237.387 263.529 238.143 264.537 238.894 265.548C239.022 265.683 239.195 265.759 239.376 265.759C239.557 265.759 239.731 265.683 239.859 265.548C239.984 265.411 240.054 265.228 240.054 265.038C240.054 264.847 239.984 264.664 239.859 264.527C239.154 263.581 238.445 262.637 237.733 261.695C238.932 260.894 239.911 259.775 240.572 258.448C241.234 257.122 241.554 255.635 241.501 254.137C241.451 253.2 241.102 252.308 240.511 251.607C239.921 250.905 239.123 250.436 238.248 250.274C237.363 250.177 236.468 250.234 235.6 250.44C233.549 250.893 231.529 251.492 229.555 252.235C228.232 250.96 226.886 249.715 225.55 248.452H225.535C225.951 248.366 226.361 248.249 226.762 248.103C231.4 246.375 233.984 240.992 234.476 235.686C235.281 240.726 236.517 246.44 240.845 248.669C242.274 249.392 243.898 249.566 245.435 249.159C246.972 248.753 248.327 247.792 249.267 246.443C251.975 242.982 252.102 238.052 252.259 233.57C255.446 238.664 257.365 244.527 257.835 250.614C258.305 256.702 257.313 262.816 254.95 268.39C250.515 275.716 243.75 281.126 235.875 283.643C228 286.16 219.533 285.619 212.002 282.118C204.471 278.616 198.371 272.385 194.803 264.547C191.234 256.709 190.432 247.781 192.541 239.373C195.331 239.541 198.084 238.631 200.286 236.812C204.755 233.304 208.695 229.099 211.971 224.34L214.527 235.844C215.457 240.016 216.155 245.034 219.347 247.258C218.547 248.047 217.988 249.069 217.739 250.195C217.49 251.321 217.563 252.499 217.95 253.581ZM220.545 247.947C221.545 248.394 222.62 248.624 223.705 248.626C225.657 250.528 225.916 250.671 228.116 252.813C227.59 253.025 227.061 253.228 226.538 253.455C224.888 254.419 222.979 254.77 221.118 254.451C220.759 254.373 220.418 254.221 220.115 254.003C219.812 253.786 219.552 253.507 219.351 253.183C219.149 252.859 219.01 252.497 218.941 252.116C218.873 251.736 218.876 251.344 218.95 250.965C219.217 249.826 219.768 248.784 220.545 247.947ZM230.675 253.344C232.601 252.655 234.57 252.112 236.568 251.717C237.404 251.518 238.28 251.647 239.033 252.079C240.985 253.467 240.603 257.802 236.873 260.568C234.964 258.014 232.893 255.6 230.675 253.344ZM252.283 231.085C252.283 229.606 252.237 228.128 252.155 226.659C257.778 228.983 263.959 231.473 270.243 233.822C270.269 240.233 270.176 239.914 268.612 245.638C267.592 249.366 257.564 283.169 255.828 288.869C250.728 288.146 245.618 287.505 240.498 286.949C245.011 284.366 248.946 280.789 252.039 276.46C255.132 272.131 257.311 267.151 258.428 261.856C259.545 256.56 259.575 251.073 258.514 245.765C257.454 240.456 255.329 235.45 252.283 231.085ZM188.368 232.982C188.391 230.411 189.781 228.409 191.037 226.322C197.548 215.424 203.029 204.078 211.481 195.889C214.683 192.763 218.817 190.918 223.169 190.674C225.689 190.589 228.212 190.691 230.719 190.979C244.219 192.237 257.617 194.511 270.812 197.785C270.13 201.462 265.279 228.43 264.882 230.24C260.438 228.5 256.01 226.715 251.6 224.885C251.498 224.856 251.392 224.852 251.289 224.873C251.186 224.894 251.089 224.94 251.006 225.008C250.922 225.075 250.855 225.161 250.808 225.261C250.761 225.36 250.737 225.469 250.736 225.58C250.92 228.533 250.959 231.494 250.851 234.451C250.99 237.757 250.405 241.052 249.141 244.079C247.797 246.699 245.059 248.696 242.178 247.696C235.981 245.538 236.017 234.657 234.485 227.174C234.436 227.011 234.334 226.871 234.197 226.78C234.061 226.689 233.898 226.651 233.737 226.674C233.577 226.697 233.43 226.779 233.321 226.906C233.212 227.032 233.149 227.195 233.143 227.366C233.549 231.258 233.323 235.195 232.474 239.006C232.109 240.539 231.456 241.979 230.553 243.239C229.65 244.499 228.516 245.554 227.219 246.34C225.99 247.058 224.582 247.36 223.186 247.207C221.789 247.053 220.47 246.451 219.407 245.482C217.389 243.324 216.956 240.426 216.005 236.158C214.984 231.581 213.964 227.006 212.945 222.433C212.918 222.341 212.875 222.255 212.817 222.181C212.76 222.107 212.689 222.045 212.608 222C212.528 221.955 212.44 221.927 212.35 221.918C212.259 221.909 212.168 221.918 212.081 221.946C211.207 222.232 210.772 225.286 202.154 233.435C200.493 235.046 198.598 236.363 196.541 237.338C195.568 237.782 194.517 238.003 193.457 237.986C192.397 237.97 191.352 237.716 190.392 237.242C189.714 236.8 189.166 236.168 188.809 235.415C188.451 234.663 188.299 233.821 188.368 232.982ZM201.815 282.09C196.402 277.499 192.424 271.289 190.401 264.27C188.378 257.251 188.403 249.751 190.475 242.748C189.322 250.538 190.493 258.514 193.824 265.568C197.156 272.623 202.483 278.404 209.066 282.11C215.648 285.816 223.159 287.262 230.554 286.246C237.949 285.231 244.862 281.806 250.331 276.446L250.312 276.466C244.586 284.011 236.26 288.843 227.165 289.897C218.07 290.952 208.952 288.144 201.815 282.09ZM175.89 290.642C185.729 288.499 195.708 287.146 205.74 286.595C210.657 289.54 216.162 291.216 221.807 291.486C227.452 291.757 233.078 290.615 238.226 288.152C248.643 289.23 262.875 291.107 273.032 293.189C259.973 302.88 244.996 309.295 229.24 311.947C200.787 317.425 178.436 311.98 152.677 297.299C160.215 294.363 167.982 292.136 175.89 290.642ZM151.735 298.394C179.025 314.251 201.671 318.072 226.367 313.876C243.533 311.486 259.895 304.732 274.051 294.191C274.041 301.55 273.977 308.907 273.974 316.269C247.325 333.319 211.098 341.999 178.783 333.485C169.206 330.95 160.084 326.778 151.779 321.133C151.795 320.572 151.718 319.857 151.719 319.455C151.735 311.429 151.735 305.3 151.735 298.394ZM131.124 365.822C132.592 351.335 137.15 336.407 146.973 326.111C148.24 324.734 149.631 323.49 151.126 322.398C166.125 332.398 183.427 337.865 201.156 338.206C226.997 338.742 252.46 331.578 274.632 317.533C282.901 323.215 287.977 332.78 290.602 342.625C293.329 352.828 293.91 363.606 294.445 374.145C294.814 381.375 296.001 427.489 296.015 428.118C293.635 427.225 291.18 426.576 288.683 426.18C291.383 419.604 292.229 412.344 291.12 405.271C290.011 398.199 286.993 391.617 282.43 386.315C285.4 380.088 286.556 373.07 285.753 366.148C284.95 359.226 282.223 352.712 277.918 347.429C273.606 342.165 268.009 338.254 261.738 336.122C255.468 333.991 248.764 333.721 242.359 335.343C235.632 336.957 229.516 340.66 224.796 345.978C220.076 351.296 216.968 357.985 215.871 365.185C208.791 365.167 201.87 367.401 196.008 371.597C190.145 375.793 185.612 381.757 182.997 388.713C182.901 388.962 183.141 388.904 181.689 388.292C176.029 385.941 169.889 385.178 163.868 386.078C157.846 386.977 152.147 389.509 147.324 393.426C142.502 397.343 138.719 402.512 136.345 408.432C133.971 414.352 133.085 420.82 133.774 427.209C132.834 427.453 131.919 427.797 131.044 428.235C130.584 414.04 129.691 379.978 131.124 365.822ZM259.615 407.735C257.139 406.429 254.386 405.411 253.534 402.877C253.279 402.15 253.306 401.347 253.609 400.642C253.911 399.936 254.465 399.386 255.149 399.11C256.579 398.555 258.119 398.398 259.622 398.655C259.467 401.844 259.618 404.258 259.615 407.735ZM259.918 421.238C261.331 421.652 262.825 421.647 264.235 421.223C265.646 420.799 266.919 419.972 267.915 418.834C268.524 418.077 268.854 417.113 268.845 416.119C268.837 415.126 268.491 414.168 267.87 413.422C267.24 412.712 266.532 412.084 265.761 411.553C264.231 410.421 262.634 409.393 260.98 408.476C260.98 405.053 260.823 401.947 260.971 398.848C263.24 399.197 265.469 399.794 267.622 400.629C268.447 400.949 268.804 399.553 267.984 399.238C265.744 398.366 263.422 397.754 261.057 397.412C261.145 396.302 261.293 395.197 261.5 394.105C261.674 393.197 260.359 392.81 260.183 393.72C259.965 394.884 259.808 396.059 259.712 397.241C258.586 397.114 257.451 397.13 256.328 397.287C255.599 397.375 254.893 397.617 254.254 398C253.615 398.383 253.056 398.899 252.611 399.517C252.183 400.31 251.979 401.216 252.023 402.128C252.067 403.04 252.357 403.919 252.859 404.663C254.369 406.965 256.832 407.84 259.61 409.352C259.56 412.755 259.288 416.15 258.797 419.513C256.285 418.834 253.827 417.95 251.444 416.869C251.287 416.777 251.102 416.753 250.928 416.801C250.755 416.849 250.605 416.966 250.51 417.128C250.465 417.21 250.435 417.3 250.423 417.394C250.411 417.488 250.417 417.584 250.44 417.675C250.463 417.767 250.502 417.853 250.557 417.929C250.611 418.004 250.679 418.068 250.757 418.115C253.299 419.275 255.924 420.224 258.607 420.952C258.5 421.688 258.37 422.523 258.253 423.266C249.35 422.803 238.021 422.421 224.041 422.27C221.553 414.032 221.967 405.12 225.206 397.178C228.445 389.237 234.291 382.802 241.666 379.06C249.041 375.319 257.446 374.523 265.332 376.821C273.217 379.118 280.051 384.353 284.573 391.56C279.998 385.904 273.803 381.981 266.927 380.388C260.052 378.794 252.872 379.618 246.48 382.732C239.701 385.841 233.982 391.063 230.087 397.702C226.192 404.34 224.307 412.078 224.684 419.88C224.739 420.803 226.104 420.809 226.049 419.88C225.689 412.756 227.29 405.675 230.657 399.494C234.025 393.312 239.016 388.296 245.024 385.051C250.165 382.146 255.963 380.795 261.783 381.146C267.602 381.498 273.217 383.538 278.012 387.043C284.265 391.874 288.554 399.032 290.014 407.073C290.763 413.506 289.836 420.033 287.334 425.951C279.144 424.664 267.832 423.792 259.61 423.339C259.696 422.659 259.82 421.898 259.918 421.238ZM260.12 419.812C260.608 416.606 260.892 413.37 260.973 410.124C262.558 411.026 264.085 412.038 265.544 413.154C266.256 413.633 266.85 414.282 267.281 415.049C268.524 417.636 264.883 420.984 260.12 419.812ZM214.46 395.36C216.229 393.827 218.147 392.497 220.181 391.391C220.966 390.964 220.272 389.718 219.492 390.144C217.372 391.312 215.373 392.708 213.526 394.311C212.814 393.503 212.148 392.652 211.529 391.763C211.017 391.017 209.831 391.738 210.349 392.492C211.014 393.448 211.732 394.363 212.497 395.232C209.891 397.556 207.919 401.346 210.142 404.03C210.783 404.702 211.571 405.196 212.435 405.471C213.299 405.745 214.214 405.791 215.099 405.604C217.088 405.098 219.027 404.392 220.889 403.494C221.098 403.7 221.31 403.902 221.517 404.112L221.537 404.125C219.988 412.383 221.727 421.236 222.354 422.219C210.64 422.109 198.678 422.229 187.688 422.528C183.001 415.259 181.033 406.409 182.166 397.694C183.358 388.318 188.007 379.819 195.099 374.051C202.191 368.283 211.151 365.711 220.029 366.898C227.638 367.902 234.692 371.636 240.013 377.475L239.856 377.563C239.837 377.525 239.813 377.491 239.785 377.46C235.471 373.942 230.391 371.626 225.01 370.724C219.629 369.821 214.12 370.362 208.988 372.296C190.319 379.148 180.028 400.699 186.258 419.732C186.544 420.604 187.864 420.23 187.575 419.349C181.713 401.298 191.018 381.653 207.514 374.419C212.566 372.129 218.1 371.282 223.559 371.965C229.018 372.648 234.212 374.836 238.619 378.31C230.437 383.471 224.502 391.827 222.096 401.573C221.883 401.553 221.782 401.63 221.219 401.842C218.964 399.686 216.592 397.644 214.46 395.36ZM219.785 402.427C217.049 403.589 213.942 405.189 211.653 403.536C211.055 403.036 210.662 402.314 210.554 401.517C210.447 400.721 210.632 399.91 211.073 399.254C211.691 398.126 212.491 397.12 213.436 396.283C215.447 398.439 217.652 400.395 219.785 402.427ZM136.393 426.188C136.573 426.184 136.745 426.107 136.872 425.972C136.999 425.838 137.072 425.656 137.076 425.466C139.871 403.033 161.373 387.452 180.805 394.819C180.892 394.853 180.985 394.867 181.077 394.86C179.198 404.383 180.846 414.305 185.68 422.582C173.225 422.939 147.372 424.013 135.109 426.859C134.464 420.625 135.379 414.322 137.761 408.579C140.144 402.837 143.91 397.856 148.684 394.135C153.458 390.414 159.072 388.084 164.964 387.376C170.857 386.669 176.823 387.61 182.264 390.104C181.053 393.991 181.545 393.59 181.165 393.424C160.215 385.659 138.28 402.828 135.707 425.462C135.707 425.655 135.779 425.839 135.908 425.975C136.037 426.111 136.211 426.188 136.393 426.188ZM276.886 349.806C259.663 331.697 229.114 339.951 220.393 364.804C220.145 365.488 221.335 365.15 217.316 364.871C218.375 358.502 221.081 352.568 225.135 347.726C229.188 342.883 234.43 339.322 240.28 337.436C248.313 334.71 257.014 335.213 264.718 338.849C272.422 342.485 278.587 348.997 282.031 357.14C280.658 354.446 278.927 351.976 276.886 349.806ZM283.493 365C285.299 371.683 284.59 378.845 281.514 384.987C279.968 383.479 278.314 382.1 276.567 380.86C271.609 377.171 265.832 374.903 259.799 374.274C253.765 373.646 247.681 374.679 242.137 377.274L242.034 377.316C237.109 371.671 230.72 367.686 223.665 365.862C221.17 365.224 221.555 365.596 221.71 365.198C223.733 359.585 227.023 354.581 231.295 350.622C235.566 346.662 240.689 343.867 246.216 342.481C262.935 338.208 279.458 347.982 283.493 365ZM295.181 430.52C279.098 438.022 148.014 438.186 131.933 430.494C131.829 430.441 131.123 430.064 131.135 429.944C131.149 429.778 131.904 429.398 132.043 429.332C149.627 421.571 280.761 421.962 295.235 429.387C296.357 429.961 296.238 430.027 295.181 430.52ZM313.877 305.795C310.917 317.486 299.142 364.703 295.922 376.439C295.005 353.941 293.139 328.51 275.343 316.296C275.351 299.397 275.5 294.538 275.415 293.018C275.374 292.266 275.005 291.985 274.66 292.05C268.882 290.818 263.042 289.905 257.2 289.062C258.497 284.794 268.154 252.394 269.289 248.312C271.097 241.852 270.65 243.243 271.358 240.51L285.08 239.026C285.022 239.026 293.715 241.75 296.277 242.469C300.188 243.679 304.868 243.903 312.085 240.975C315.711 239.504 319.122 237.499 322.217 235.019C331.721 233.998 343.518 232.72 349.849 232.031C352.733 231.742 355.631 231.493 358.501 231.095C360.148 240.469 362.184 249.763 364.343 259.018C366.927 270.093 397.126 386.174 397.278 386.854C393.736 388.132 390.178 389.35 386.602 390.506C355.273 261.144 356.427 268.011 351.496 235.96C351.356 235.046 350.04 235.434 350.18 236.344C354.199 262.479 355.805 269.275 362.343 296.27C364.772 306.294 384.977 389.67 385.284 390.92C370.159 395.737 354.732 399.419 339.116 401.937C336.687 392.707 317.697 315.521 315.197 305.785C315.155 305.633 315.068 305.499 314.948 305.404C314.828 305.31 314.682 305.259 314.532 305.26C314.382 305.261 314.237 305.314 314.118 305.411C313.999 305.507 313.917 305.642 313.877 305.795Z" fill="black"/>
<path d="M315.103 301.226C312.936 292.5 310.453 283.916 307.638 275.415C307.349 274.543 306.028 274.917 306.32 275.8C310.859 289.5 313.071 298.969 313.786 301.61C313.834 301.794 313.949 301.951 314.107 302.046C314.264 302.141 314.451 302.165 314.626 302.114C314.8 302.064 314.949 301.941 315.038 301.775C315.128 301.608 315.151 301.411 315.103 301.226Z" fill="black"/>
<path d="M273.826 198.625C280.544 199.498 287.217 200.687 293.845 202.191C294.252 202.294 295.12 201.61 295.192 201.361C299.417 188.123 305.235 175.514 312.502 163.845C312.987 163.066 311.804 162.341 311.322 163.116C304.042 174.825 298.205 187.469 293.954 200.742C287.297 199.244 280.588 198.057 273.826 197.179C273.646 197.181 273.473 197.258 273.345 197.393C273.217 197.528 273.145 197.71 273.143 197.901C273.147 198.092 273.22 198.273 273.347 198.408C273.474 198.543 273.646 198.621 273.826 198.625Z" fill="black"/>
<path d="M326.44 230.915C331.532 223.048 336.139 214.842 340.232 206.347C340.631 205.517 339.447 204.79 339.053 205.619C334.958 214.112 330.351 222.318 325.261 230.187C324.765 230.955 325.947 231.679 326.44 230.915Z" fill="black"/>
<path d="M365.927 211.835C366.073 212.75 367.389 212.362 367.244 211.452C365.447 200.119 362.137 189.114 357.411 178.767C356.088 175.862 354.697 172.99 353.109 170.232C353.017 170.07 352.867 169.953 352.693 169.907C352.52 169.86 352.335 169.887 352.181 169.983C352.026 170.079 351.913 170.235 351.866 170.418C351.819 170.601 351.842 170.796 351.93 170.961C358.865 183.594 363.605 197.437 365.927 211.835Z" fill="black"/>
<path d="M373.042 211.659C372.263 194.686 367.387 178.206 358.878 163.79C358.407 163.003 357.231 163.727 357.699 164.519C366.086 178.715 370.896 194.945 371.672 211.663C371.719 212.586 373.085 212.591 373.042 211.659Z" fill="black"/>
<path d="M68.4654 -11.9582C65.4288 -13.3473 63.5706 -13.3473 60.534 -11.9582C50.0908 -7.18135 55.008 33.4767 59.1447 58.6311C50.1198 34.9509 34.0288 -2.33728 22.7743 -0.570554C19.5017 -0.0568419 17.9229 0.979762 16.0351 3.85386C10.0889 12.9074 30.1002 40.3504 45.8432 59.5498C27.0693 43.6893 0.335304 23.6522 -7.97519 30.3043C-10.6135 32.416 -11.5285 34.1269 -11.881 37.6066C-13.0215 48.8659 18.6694 63.2485 41.3558 72.0544C17.5113 67.901 -16.7662 63.9112 -21.0152 74.3047C-22.3283 77.5169 -22.3283 79.4831 -21.0152 82.6953C-16.7662 93.0888 17.5113 89.099 41.3558 84.9456C18.6693 93.7515 -13.0215 108.134 -11.881 119.393C-11.5285 122.873 -10.6135 124.584 -7.97519 126.696C0.335243 133.348 27.0689 113.311 45.8432 97.4502C30.0998 116.65 10.0888 144.093 16.035 153.146C17.9227 156.02 19.5016 157.057 22.7742 157.57C34.0288 159.337 50.1198 122.048 59.1447 98.3683C55.008 123.522 50.0908 164.181 60.534 168.958C63.5706 170.347 65.4288 170.347 68.4654 168.958C78.9092 164.181 73.9914 123.52 69.8541 98.3658C78.8791 122.046 94.971 159.337 106.226 157.57C109.499 157.057 111.078 156.02 112.965 153.146C118.912 144.093 98.9004 116.65 83.1574 97.4508C101.931 113.311 128.665 133.348 136.976 126.696C139.614 124.584 140.529 122.873 140.882 119.393C142.022 108.134 110.331 93.7521 87.6448 84.9456C111.489 89.099 145.766 93.0888 150.015 82.6953C151.328 79.4831 151.328 77.5169 150.015 74.3047C145.766 63.9112 111.489 67.901 87.6448 72.0544C110.331 63.2479 142.022 48.8659 140.882 37.6066C140.529 34.1269 139.614 32.416 136.975 30.3043C128.665 23.6522 101.931 43.6893 83.1568 59.5498C98.8998 40.3505 118.911 12.9074 112.965 3.85386C111.077 0.979762 109.498 -0.0568419 106.226 -0.570554C94.971 -2.33735 78.8791 34.9536 69.8547 58.6336C73.9914 33.4795 78.9092 -7.18123 68.4654 -11.9582Z" fill="#76C063" stroke="black" stroke-linecap="round" stroke-linejoin="round"/>
<path d="M49.5214 212.638C47.5905 211.787 46.4091 211.787 44.4783 212.638C37.8381 215.561 40.9646 240.445 43.5949 255.84C37.8565 241.347 27.6252 218.526 20.4692 219.607C18.3884 219.921 17.3845 220.556 16.1842 222.315C12.4033 227.856 25.1273 244.652 35.1373 256.402C23.2001 246.695 6.20164 234.432 0.917507 238.503C-0.760011 239.796 -1.34181 240.843 -1.56594 242.972C-2.29115 249.863 17.8592 258.666 32.284 264.055C17.1228 261.513 -4.67218 259.071 -7.3738 265.432C-8.20873 267.398 -8.20873 268.602 -7.3738 270.568C-4.67218 276.929 17.1228 274.487 32.284 271.945C17.8591 277.334 -2.29115 286.137 -1.56598 293.028C-1.34185 295.158 -0.760011 296.205 0.917507 297.497C6.2016 301.568 23.1999 289.305 35.1373 279.598C25.127 291.348 12.4033 308.144 16.1841 313.685C17.3844 315.444 18.3883 316.079 20.4692 316.393C27.6252 317.474 37.8565 294.653 43.5949 280.16C40.9646 295.555 37.8381 320.439 44.4783 323.362C46.4091 324.213 47.5905 324.213 49.5214 323.362C56.1619 320.439 53.035 295.553 50.4044 280.158C56.1428 294.651 66.3746 317.474 73.531 316.393C75.612 316.079 76.6159 315.444 77.8161 313.685C81.5971 308.144 68.8731 291.348 58.8631 279.598C70.8002 289.305 87.7987 301.568 93.0829 297.497C94.7603 296.205 95.3422 295.158 95.5663 293.028C96.2913 286.137 76.141 277.335 61.7163 271.945C76.8776 274.487 98.6722 276.929 101.374 270.568C102.209 268.602 102.209 267.398 101.374 265.432C98.6722 259.071 76.8776 261.513 61.7163 264.055C76.141 258.665 96.2913 249.863 95.5663 242.972C95.3422 240.843 94.7603 239.796 93.0825 238.503C87.7984 234.432 70.8002 246.695 58.8627 256.402C68.8727 244.652 81.5967 227.856 77.8161 222.315C76.6155 220.556 75.6116 219.921 73.531 219.607C66.3746 218.526 56.1428 241.349 50.4047 255.841C53.035 240.446 56.1619 215.561 49.5214 212.638Z" fill="#F7DA31" stroke="black" stroke-linecap="round" stroke-linejoin="round"/>
<path d="M258.521 -12.3624C256.591 -13.2125 255.409 -13.2125 253.478 -12.3624C246.838 -9.43886 249.965 15.4448 252.595 30.8398C246.856 16.347 236.625 -6.47418 229.469 -5.39291C227.388 -5.0785 226.384 -4.44408 225.184 -2.68507C221.403 2.85591 234.127 19.6516 244.137 31.4021C232.2 21.6951 215.202 9.43192 209.918 13.5032C208.24 14.7956 207.658 15.8427 207.434 17.9724C206.709 24.8633 226.859 33.6658 241.284 39.0552C226.123 36.5132 204.328 34.0713 201.626 40.4324C200.791 42.3983 200.791 43.6017 201.626 45.5676C204.328 51.9287 226.123 49.4868 241.284 46.9448C226.859 52.3342 206.709 61.1367 207.434 68.0276C207.658 70.1575 208.24 71.2045 209.918 72.4969C215.202 76.5679 232.2 64.3052 244.137 54.5979C234.127 66.3484 221.403 83.1442 225.184 88.6849C226.384 90.444 227.388 91.0786 229.469 91.3928C236.625 92.4742 246.856 69.6526 252.595 55.1598C249.965 70.5547 246.838 95.4389 253.478 98.3624C255.409 99.2125 256.591 99.2125 258.521 98.3624C265.162 95.4389 262.035 70.5532 259.404 55.1583C265.143 69.651 275.375 92.4742 282.531 91.3928C284.612 91.0786 285.616 90.444 286.816 88.6849C290.597 83.1442 277.873 66.3484 267.863 54.5983C279.8 64.3052 296.799 76.5679 302.083 72.4969C303.76 71.2045 304.342 70.1575 304.566 68.0276C305.291 61.1367 285.141 52.3346 270.716 46.9448C285.878 49.4868 307.672 51.9287 310.374 45.5676C311.209 43.6017 311.209 42.3983 310.374 40.4324C307.672 34.0713 285.878 36.5132 270.716 39.0552C285.141 33.6654 305.291 24.8633 304.566 17.9724C304.342 15.8427 303.76 14.7956 302.082 13.5032C296.798 9.43192 279.8 21.6951 267.863 31.4021C277.873 19.6517 290.597 2.85591 286.816 -2.68507C285.616 -4.44408 284.612 -5.0785 282.531 -5.39291C275.375 -6.47422 265.143 16.3487 259.405 30.8413C262.035 15.4465 265.162 -9.43878 258.521 -12.3624Z" fill="#2755A0" stroke="black" stroke-linecap="round" stroke-linejoin="round"/>
<defs>
<linearGradient id="paint0_linear_85_463" x1="194" y1="-306.5" x2="352.221" y2="268.93" gradientUnits="userSpaceOnUse">
<stop stop-color="#76C063"/>
<stop offset="1" stop-color="white"/>
</linearGradient>
</defs>
</svg>
