<svg width="390" height="844" viewBox="0 0 390 844" fill="none" xmlns="http://www.w3.org/2000/svg">
<rect x="-2" y="-70" width="392" height="495" rx="14" fill="url(#paint0_linear_87_464)"/>
<path d="M-9.53457 -56.9582C-12.5712 -58.3473 -14.4294 -58.3473 -17.466 -56.9582C-27.9092 -52.1814 -22.992 -11.5233 -18.8553 13.6311C-27.8802 -10.0491 -43.9712 -47.3373 -55.2257 -45.5706C-58.4983 -45.0568 -60.0771 -44.0202 -61.9649 -41.1461C-67.9111 -32.0926 -47.8998 -4.64957 -32.1568 14.5498C-50.9307 -1.31073 -77.6647 -21.3478 -85.9752 -14.6957C-88.6135 -12.584 -89.5285 -10.8731 -89.881 -7.39338C-91.0215 3.86587 -59.3306 18.2485 -36.6442 27.0544C-60.4887 22.901 -94.7662 18.9112 -99.0152 29.3047C-100.328 32.5169 -100.328 34.4831 -99.0152 37.6953C-94.7662 48.0888 -60.4887 44.099 -36.6442 39.9456C-59.3307 48.7515 -91.0215 63.1341 -89.881 74.3933C-89.5285 77.8734 -88.6135 79.5842 -85.9752 81.6958C-77.6648 88.3475 -50.9311 68.3112 -32.1568 52.4502C-47.9002 71.6496 -67.9112 99.0927 -61.965 108.146C-60.0773 111.02 -58.4984 112.057 -55.2258 112.57C-43.9712 114.337 -27.8802 77.0484 -18.8553 53.3683C-22.992 78.5224 -27.9092 119.181 -17.466 123.958C-14.4294 125.347 -12.5712 125.347 -9.53457 123.958C0.909195 119.181 -4.00861 78.5199 -8.14585 53.3658C0.879082 77.0459 16.971 114.337 28.2261 112.57C31.4989 112.057 33.0777 111.02 34.9654 108.146C40.9118 99.0927 20.9004 71.6496 5.15743 52.4508C23.9312 68.3112 50.6653 88.3475 58.9758 81.6958C61.6139 79.5842 62.5291 77.8734 62.8816 74.3933C64.0217 63.1341 32.3308 48.7521 9.6448 39.9456C33.4893 44.099 67.7663 48.0888 72.0151 37.6953C73.3283 34.4831 73.3283 32.5169 72.0151 29.3047C67.7663 18.9112 33.4893 22.901 9.6448 27.0544C32.3308 18.2479 64.0217 3.86587 62.8816 -7.39338C62.5291 -10.8731 61.6139 -12.584 58.9752 -14.6957C50.6647 -21.3478 23.9312 -1.31067 5.15684 14.5498C20.8998 -4.64951 40.9112 -32.0926 34.9654 -41.1461C33.0772 -44.0202 31.4983 -45.0568 28.2261 -45.5706C16.971 -47.3373 0.879082 -10.0464 -8.14526 13.6336C-4.00861 -11.5205 0.909195 -52.1812 -9.53457 -56.9582Z" fill="#76C063" stroke="black" stroke-linecap="round" stroke-linejoin="round"/>
<path d="M349.521 -40.3624C347.591 -41.2125 346.409 -41.2125 344.478 -40.3624C337.838 -37.4389 340.965 -12.5552 343.595 2.83978C337.856 -11.653 327.625 -34.4742 320.469 -33.3929C318.388 -33.0785 317.384 -32.4441 316.184 -30.6851C312.403 -25.1441 325.127 -8.34837 335.137 3.40207C323.2 -6.30493 306.202 -18.5681 300.918 -14.4968C299.24 -13.2044 298.658 -12.1573 298.434 -10.0276C297.709 -3.13674 317.859 5.66578 332.284 11.0552C317.123 8.51318 295.328 6.07135 292.626 12.4324C291.791 14.3983 291.791 15.6017 292.626 17.5676C295.328 23.9287 317.123 21.4868 332.284 18.9448C317.859 24.3342 297.709 33.1367 298.434 40.0276C298.658 42.1575 299.24 43.2045 300.918 44.4969C306.202 48.5679 323.2 36.3052 335.137 26.5979C325.127 38.3484 312.403 55.1442 316.184 60.6849C317.384 62.444 318.388 63.0786 320.469 63.3928C327.625 64.4742 337.856 41.6526 343.595 27.1598C340.965 42.5547 337.838 67.4389 344.478 70.3624C346.409 71.2125 347.591 71.2125 349.521 70.3624C356.162 67.4389 353.035 42.5532 350.404 27.1583C356.143 41.651 366.375 64.4742 373.531 63.3928C375.612 63.0786 376.616 62.444 377.816 60.6849C381.597 55.1442 368.873 38.3484 358.863 26.5983C370.8 36.3052 387.799 48.5679 393.083 44.4969C394.76 43.2045 395.342 42.1575 395.566 40.0276C396.291 33.1367 376.141 24.3346 361.716 18.9448C376.878 21.4868 398.672 23.9287 401.374 17.5676C402.209 15.6017 402.209 14.3983 401.374 12.4324C398.672 6.07135 376.878 8.51318 361.716 11.0552C376.141 5.66539 396.291 -3.13674 395.566 -10.0276C395.342 -12.1573 394.76 -13.2044 393.082 -14.4968C387.798 -18.5681 370.8 -6.30489 358.863 3.40207C368.873 -8.34834 381.597 -25.1441 377.816 -30.6851C376.616 -32.4441 375.612 -33.0785 373.531 -33.3929C366.375 -34.4742 356.143 -11.6513 350.405 2.84131C353.035 -12.5535 356.162 -37.4388 349.521 -40.3624Z" fill="#2755A0" stroke="black" stroke-linecap="round" stroke-linejoin="round"/>
<path d="M349.521 761.638C347.591 760.787 346.409 760.787 344.478 761.638C337.838 764.561 340.965 789.445 343.595 804.84C337.856 790.347 327.625 767.526 320.469 768.607C318.388 768.921 317.384 769.556 316.184 771.315C312.403 776.856 325.127 793.652 335.137 805.402C323.2 795.695 306.202 783.432 300.918 787.503C299.24 788.796 298.658 789.843 298.434 791.972C297.709 798.863 317.859 807.666 332.284 813.055C317.123 810.513 295.328 808.071 292.626 814.432C291.791 816.398 291.791 817.602 292.626 819.568C295.328 825.929 317.123 823.487 332.284 820.945C317.859 826.334 297.709 835.137 298.434 842.028C298.658 844.158 299.24 845.205 300.918 846.497C306.202 850.568 323.2 838.305 335.137 828.598C325.127 840.348 312.403 857.144 316.184 862.685C317.384 864.444 318.388 865.079 320.469 865.393C327.625 866.474 337.856 843.653 343.595 829.16C340.965 844.555 337.838 869.439 344.478 872.362C346.409 873.213 347.591 873.213 349.521 872.362C356.162 869.439 353.035 844.553 350.404 829.158C356.143 843.651 366.375 866.474 373.531 865.393C375.612 865.079 376.616 864.444 377.816 862.685C381.597 857.144 368.873 840.348 358.863 828.598C370.8 838.305 387.799 850.568 393.083 846.497C394.76 845.205 395.342 844.158 395.566 842.028C396.291 835.137 376.141 826.335 361.716 820.945C376.878 823.487 398.672 825.929 401.374 819.568C402.209 817.602 402.209 816.398 401.374 814.432C398.672 808.071 376.878 810.513 361.716 813.055C376.141 807.665 396.291 798.863 395.566 791.972C395.342 789.843 394.76 788.796 393.082 787.503C387.798 783.432 370.8 795.695 358.863 805.402C368.873 793.652 381.597 776.856 377.816 771.315C376.616 769.556 375.612 768.921 373.531 768.607C366.375 767.526 356.143 790.349 350.405 804.841C353.035 789.446 356.162 764.561 349.521 761.638Z" fill="#F7DA31" stroke="black" stroke-linecap="round" stroke-linejoin="round"/>
<defs>
<linearGradient id="paint0_linear_87_464" x1="194" y1="-306.5" x2="352.221" y2="268.93" gradientUnits="userSpaceOnUse">
<stop stop-color="#76C063"/>
<stop offset="1" stop-color="white"/>
</linearGradient>
</defs>
</svg>
