<svg width="23" height="22" viewBox="0 0 23 22" fill="none" xmlns="http://www.w3.org/2000/svg">
<path d="M11.6786 22.357C9.27221 19.7075 6.00876 17.9916 2.46218 17.5105C2.05849 17.4659 1.68567 17.2732 1.41565 16.9699C1.14563 16.6665 0.997568 16.2738 1.00003 15.8677V2.64266C1.00002 2.40537 1.05141 2.17088 1.15067 1.95534C1.24993 1.73981 1.3947 1.54833 1.57503 1.39409C1.75218 1.24265 1.95953 1.13064 2.1833 1.06549C2.40706 1.00034 2.64213 0.983552 2.87289 1.01623C6.26422 1.57908 9.36665 3.26921 11.6786 5.81337V22.357Z" stroke="white" stroke-linecap="round" stroke-linejoin="round"/>
<path d="M11.6786 22.357C14.085 19.7075 17.3484 17.9916 20.895 17.5105C21.2987 17.4659 21.6716 17.2732 21.9415 16.9699C22.2116 16.6665 22.3596 16.2738 22.3571 15.8677V2.64266C22.3571 2.40537 22.3057 2.17088 22.2065 1.95534C22.1073 1.73981 21.9625 1.54833 21.7821 1.39409C21.605 1.24265 21.3977 1.13064 21.174 1.06549C20.95 1.00034 20.7151 0.983552 20.4843 1.01623C17.0929 1.57908 13.9905 3.26921 11.6786 5.81337V22.357Z" stroke="white" stroke-linecap="round" stroke-linejoin="round"/>
</svg>
