<svg width="25" height="25" viewBox="0 0 25 25" fill="none" xmlns="http://www.w3.org/2000/svg">
<path d="M24 24H19.4V2.53333C19.4 2.12666 19.497 1.73664 19.6694 1.44911C19.842 1.16155 20.076 1 20.32 1H23.08C23.324 1 23.558 1.16155 23.7306 1.44911C23.903 1.73664 24 2.12666 24 2.53333V24Z" stroke="white" stroke-linecap="round" stroke-linejoin="round"/>
<path d="M14.8 23.9999H10.2V7.13328C10.2 6.72661 10.2969 6.33659 10.4695 6.04906C10.642 5.7615 10.876 5.59995 11.12 5.59995H13.88C14.124 5.59995 14.358 5.7615 14.5305 6.04906C14.7031 6.33659 14.8 6.72661 14.8 7.13328V23.9999Z" stroke="white" stroke-linecap="round" stroke-linejoin="round"/>
<path d="M5.6 23.9999H1V11.7333C1 11.3266 1.09693 10.9366 1.26946 10.649C1.442 10.3615 1.676 10.1999 1.92 10.1999H4.68C4.924 10.1999 5.15801 10.3615 5.33053 10.649C5.50307 10.9366 5.6 11.3266 5.6 11.7333V23.9999Z" stroke="white" stroke-linecap="round" stroke-linejoin="round"/>
</svg>
